<svg width="23" height="23" xmlns="http://www.w3.org/2000/svg">
    <g fill="#1A1A1A" fill-rule="evenodd">
        <path d="M12.607 3.5a.7.7 0 0 1 .495.205l4.203 4.201a.7.7 0 0 1 .205.495v8.401a2.1 2.1 0 0 1-2.101 2.1H7.004a2.1 2.1 0 0 1-2.101-2.1V5.601c0-1.16.94-2.1 2.101-2.1h5.603zm-.29 1.4H7.004a.7.7 0 0 0-.7.7v11.202a.7.7 0 0 0 .7.7h8.405a.7.7 0 0 0 .7-.7V8.691l-3.792-3.79z"/>
        <path d="M13.308 7.7h3.502a.7.7 0 1 1 0 1.401h-4.203a.7.7 0 0 1-.7-.7v-4.2a.7.7 0 0 1 1.4 0v3.5zM11.907 15.402a.7.7 0 0 1-1.401 0v-4.2a.7.7 0 0 1 1.4 0v4.2z"/>
        <path d="M9.105 14.002a.7.7 0 1 1 0-1.4h4.203a.7.7 0 1 1 0 1.4H9.105z"/>
    </g>
</svg>
