<svg width="22" height="23" xmlns="http://www.w3.org/2000/svg">
    <path d="M4.913 4.31a.315.315 0 1 0 0-.63.315.315 0 0 0 0 .63zm-2.52 0a.315.315 0 1 0 0-.63.315.315 0 0 0 0 .63zm1.26 0a.315.315 0 1 0 0-.63.315.315 0 0 0 0 .63zm-.07 3.333h2.855a.427.427 0 0 0 .415-.316.426.426 0 0 0-.196-.484l-.433-.256a3.644 3.644 0 0 0 1.082-2.615C7.293 2.002 5.679.376 3.706.348A3.654 3.654 0 0 0 0 3.995C0 5.94 1.603 7.601 3.584 7.643zM1.532 1.845A3.003 3.003 0 0 1 3.697.977a3.037 3.037 0 0 1 2.979 2.999A3.016 3.016 0 0 1 5.639 6.27a.46.46 0 0 0 .068.741l.004.002H3.593A3.028 3.028 0 0 1 .63 3.995c0-.814.32-1.578.9-2.15zm19.658 19.35h-.315V16.51a3.11 3.11 0 0 0-1.854-2.841l-1.66-.711a2.487 2.487 0 0 0 1.066-.67c.448-.474.705-1.119.705-1.768a2.5 2.5 0 0 0-.603-1.627 3.255 3.255 0 0 1-.766-2.096V5.29c0-1.32-.515-2.562-1.45-3.495A4.951 4.951 0 0 0 7.865 5.29v1.458c0 .793-.312 1.549-.818 2.159a2.52 2.52 0 0 0-.346 2.707c.315.67.883 1.15 1.564 1.355l-1.649.716a3.1 3.1 0 0 0-1.904 2.863v3.703a.315.315 0 0 0 .63 0v-3.703c0-1 .596-1.896 1.522-2.285l2.066-.897v1.893h-.95a.947.947 0 0 0-.939 1.044l.52 4.892H.314a.315.315 0 1 0 0 .63h20.874a.315.315 0 1 0 0-.63zM18.046 9.298c.298.353.455.776.455 1.222 0 .49-.194.978-.534 1.337-.359.381-.852.59-1.388.59h-.41l-.54-.23a1.436 1.436 0 0 1-.86-1.132 3.096 3.096 0 0 0 1.635-2.726V5.994a4.083 4.083 0 0 0 .728-.016v.82c0 .913.325 1.801.914 2.5zm-5.156 4.966a11.684 11.684 0 0 1-3.33-.423v-.749l.09-.04h.002l.562-.244a2.066 2.066 0 0 0 1.202-1.478c.274.08.564.123.864.123h1.026c.3 0 .591-.044.867-.124a2.065 2.065 0 0 0 1.208 1.466l.6.257.045.02v.707c-1.02.304-2.073.467-3.136.485zm3.136.17v.825H9.559v-.766a12.327 12.327 0 0 0 6.467-.059zm1.106-9.09c-.867.116-1.846-.116-2.52-.637a.315.315 0 0 0-.385.497c.44.341.972.581 1.547.702V7.62c-.151.344-.32.631-.7.944-.16.132-.335.241-.522.328a.924.924 0 0 0-.822-.503h-.739a.924.924 0 0 0-.923.922c0 .509.414.922.923.922h.739c.428 0 .79-.293.893-.689.421-.16 1.108-.732 1.109-.732a2.47 2.47 0 0 1-2.426 2.012H12.28A2.47 2.47 0 0 1 9.812 8.36V5.927a8.454 8.454 0 0 0 3.007-1.077 8.552 8.552 0 0 0 2.863-2.784 4.309 4.309 0 0 1 1.45 3.277zm-3.11 3.967a.294.294 0 0 1-.292.292h-.739a.294.294 0 0 1 0-.586h.739c.161 0 .292.131.293.292v.002zM8.495 5.29a4.321 4.321 0 0 1 6.687-3.609 7.84 7.84 0 0 1-5.664 3.653H8.494V5.29zM7.27 11.346c-.319-.68-.22-1.46.26-2.037.602-.724.965-1.619.964-2.56v-.786h.688V8.36c0 1.178.663 2.204 1.635 2.727-.06.501-.382.94-.854 1.144l-.5.218h-.457a1.901 1.901 0 0 1-1.736-1.102zm10.966 4.89-.526 4.959H8.193l-.526-4.959a.31.31 0 0 1 .079-.243.311.311 0 0 1 .234-.104h9.943c.09 0 .173.037.234.104a.31.31 0 0 1 .08.243zm2.008 4.959h-1.9l.519-4.892a.945.945 0 0 0-.94-1.044h-1.267v-1.918l2.113.904a2.479 2.479 0 0 1 1.475 2.265v4.685zm-7.293-3.849c-.66 0-1.197.537-1.197 1.196a1.198 1.198 0 0 0 2.394 0c0-.66-.537-1.196-1.197-1.196zm0 1.762a.567.567 0 1 1 0-1.135.567.567 0 0 1 0 1.135z" fill="#505050" fill-rule="nonzero"/>
</svg>
