<svg width="16" height="16" xmlns="http://www.w3.org/2000/svg">
    <g fill="#000" fill-rule="evenodd">
        <path d="M0 11.201c0-.386.35-.7.782-.7.432 0 .782.314.782.7v2.1c0 .387.35.7.782.7H13.29c.432 0 .782-.313.782-.7v-2.1c0-.386.35-.7.782-.7.432 0 .782.314.782.7v2.1c0 1.16-1.05 2.1-2.346 2.1H2.346c-1.296 0-2.346-.94-2.346-2.1v-2.1z"/>
        <path d="M10.393 7.206a.848.848 0 0 1 1.106 0 .65.65 0 0 1 0 .99l-3.128 2.8a.848.848 0 0 1-1.105 0l-3.128-2.8a.65.65 0 0 1 0-.99.848.848 0 0 1 1.106 0L7.818 9.51l2.575-2.305z"/>
        <path d="M7.037.7c0-.387.35-.7.781-.7.432 0 .782.313.782.7v9.801c0 .387-.35.7-.782.7-.431 0-.781-.313-.781-.7v-9.8z"/>
    </g>
</svg>
