<svg width="23" height="24" xmlns="http://www.w3.org/2000/svg">
    <g fill="#505050" fill-rule="nonzero">
        <path d="M11.2.944C5.014.944 0 5.953 0 12.13c0 6.178 5.014 11.186 11.2 11.186 6.186 0 11.2-5.008 11.2-11.186 0-2.966-1.18-5.812-3.28-7.91A11.207 11.207 0 0 0 11.2.945zm0 21.44C5.53 22.384.933 17.794.933 12.13.933 6.467 5.53 1.877 11.2 1.877c5.67 0 10.267 4.59 10.267 10.253 0 2.72-1.082 5.328-3.007 7.25a10.273 10.273 0 0 1-7.26 3.004z"/>
        <path d="m11.727 11.632.57-4.987A6.21 6.21 0 0 1 14 7.367l.467-.806a6.954 6.954 0 0 0-2.068-.853l.201-1.683-.933-.107-.192 1.687h-.042c-1.782 0-3.462 1.496-3.462 3.081 0 1.44.905 2.591 2.753 3.51l-.625 5.453a5.179 5.179 0 0 1-1.834-.755l-.094-.056-.466.801.093.056c.67.438 1.42.738 2.207.881l-.205 1.66.933.107.192-1.688h.042c1.95 0 3.966-1.24 3.966-3.318 0-1.692-.844-2.67-3.206-3.705zM8.904 8.686c0-1.044 1.237-2.107 2.469-2.144l-.537 4.656c-1.293-.713-1.932-1.538-1.932-2.512zm2.128 9.037.583-5.127c2.002.933 2.385 1.669 2.385 2.74 0 1.618-1.717 2.36-2.968 2.387z"/>
    </g>
</svg>
