<svg width="23" height="22" xmlns="http://www.w3.org/2000/svg">
    <g fill="#505050" fill-rule="nonzero">
        <path d="M5.6.115V17.36a2.332 2.332 0 0 1-2.333 2.33 2.332 2.332 0 0 1-2.334-2.33v-6.991a.933.933 0 0 1 1.867 0v6.059h.933v-6.06a1.865 1.865 0 0 0-3.733 0v6.992a3.265 3.265 0 0 0 3.267 3.262h15.866A3.265 3.265 0 0 0 22.4 17.36V.115H5.6zM21.467 17.36a2.332 2.332 0 0 1-2.334 2.33H5.55a3.26 3.26 0 0 0 .984-2.33V1.047h14.934V17.36z"/>
        <path d="M18.667 3.844H9.333v6.525h9.334V3.844zm-.934 5.592h-7.466v-4.66h7.466v4.66zM9.333 12.233h9.333v1H9.333zM9.333 15.029h7v1h-7z"/>
    </g>
</svg>
