<svg width="23" height="24" xmlns="http://www.w3.org/2000/svg">
    <path d="M11.2.174C5.014.174 0 5.182 0 11.36s5.014 11.186 11.2 11.186c6.186 0 11.2-5.008 11.2-11.186 0-2.967-1.18-5.812-3.28-7.91A11.207 11.207 0 0 0 11.2.175zm.467.932c1.207.053 2.395.32 3.509.788l-3.51 3.51V1.106zm0 5.593 4.4-4.385c.742.4 1.431.89 2.054 1.458l-6.454 6.46V6.7zm7.112-2.246a10.3 10.3 0 0 1 1.516 2.162l-4.293 4.279h-3.677l6.454-6.441zm1.936 3.062c.442 1.075.696 2.218.752 3.379h-4.144l3.392-3.379zm-9.982-6.409v10.058l-7.116 7.099A10.244 10.244 0 0 1 1.714 7.425a10.266 10.266 0 0 1 9.02-6.319zm.467 20.508a10.232 10.232 0 0 1-6.92-2.69l7.107-7.098h10.08c0 .156-.011.31-.033.466-.483 5.284-4.922 9.327-10.234 9.322z" fill="#505050" fill-rule="nonzero"/>
</svg>
