<svg width="20" height="16" xmlns="http://www.w3.org/2000/svg">
    <g fill-rule="nonzero" fill="none">
        <path d="M12.411.987a4.128 4.128 0 1 0 5.664 1.419A4.128 4.128 0 0 0 12.411.987zm3.549 5.919a2.774 2.774 0 1 1-2.855-4.758 2.774 2.774 0 0 1 2.855 4.758z" fill="#FFF"/>
        <path d="M14.538 8.808a4.312 4.312 0 0 1-3.675-2.079 4.285 4.285 0 0 1 1.47-5.871 4.273 4.273 0 0 1 2.196-.609c1.497 0 2.907.798 3.675 2.079a4.284 4.284 0 0 1-3.666 6.48zM14.529.549a3.983 3.983 0 0 0-3.408 6.024 4 4 0 0 0 3.417 1.935 3.983 3.983 0 0 0 3.408-6.024A3.997 3.997 0 0 0 14.529.549zm.009 8.109a4.15 4.15 0 0 1-3.546-2.007 4.131 4.131 0 0 1 3.54-6.252 4.15 4.15 0 0 1 3.546 2.007 4.136 4.136 0 0 1-1.419 5.664 4.131 4.131 0 0 1-2.121.588zm-.006-6.753a2.627 2.627 0 0 0-2.25 3.975 2.64 2.64 0 0 0 2.253 1.275c.474 0 .939-.129 1.347-.375a2.632 2.632 0 0 0 .903-3.6 2.596 2.596 0 0 0-2.253-1.275z" fill="#272521"/>
        <path d="M3.39 6.621a4.128 4.128 0 1 0 2.324 7.923A4.128 4.128 0 0 0 3.39 6.62zm1.941 6.621a2.772 2.772 0 0 1-3.441-1.881A2.77 2.77 0 0 1 3.771 7.92a2.774 2.774 0 0 1 3.441 1.881 2.77 2.77 0 0 1-1.881 3.441z" fill="#FFF"/>
        <path d="M4.551 14.862a4.304 4.304 0 0 1-4.104-3.075 4.285 4.285 0 0 1 4.107-5.484 4.298 4.298 0 0 1 4.104 3.075 4.286 4.286 0 0 1-4.107 5.484zm.003-8.259a3.986 3.986 0 0 0-3.822 5.1 4.002 4.002 0 0 0 3.816 2.859 3.982 3.982 0 0 0 3.819-5.1 3.995 3.995 0 0 0-3.813-2.859zm-.003 8.142c-1.818 0-3.447-1.23-3.96-2.991-.639-2.202.615-4.518 2.799-5.166a4.132 4.132 0 0 1 1.161-.168c1.818 0 3.447 1.23 3.96 2.991a4.156 4.156 0 0 1-.339 3.165 4.11 4.11 0 0 1-2.46 1.998 4.03 4.03 0 0 1-1.161.171zm0-6.786c-.249 0-.498.036-.738.105a2.628 2.628 0 0 0-1.779 3.255 2.636 2.636 0 0 0 2.517 1.884c.249 0 .498-.036.738-.108a2.61 2.61 0 0 0 1.563-1.26 2.613 2.613 0 0 0 .216-1.995 2.634 2.634 0 0 0-2.517-1.881z" fill="#272521"/>
        <path d="M9.081 13.632c-.405 0-.717-.168-.828-.453-.171-.435.189-.972.822-1.221.198-.078.408-.12.606-.12.408 0 .717.168.828.453.171.435-.189.972-.822 1.221-.198.078-.408.12-.606.12zm.603-1.494c-.159 0-.333.033-.498.099-.459.18-.759.561-.654.831.099.255.597.339 1.044.162.459-.18.759-.561.654-.831-.063-.159-.273-.261-.546-.261z" fill="#272521"/>
        <path d="M10.44 13.047c-.354 0-.636-.147-.756-.39-.204-.42.114-.984.726-1.281a1.63 1.63 0 0 1 .699-.171c.354 0 .636.147.756.393.204.42-.114.984-.726 1.281a1.66 1.66 0 0 1-.699.168zm.672-1.542c-.183 0-.381.048-.57.141-.444.216-.714.618-.588.879.12.246.621.291 1.053.081.444-.216.714-.618.588-.879-.066-.141-.249-.222-.483-.222z" fill="#272521"/>
        <path d="M11.523 12.12a.656.656 0 0 1-.459-.168c-.345-.318-.252-.957.21-1.458.444-.48 1.104-.63 1.437-.324.345.318.252.957-.21 1.458-.288.306-.654.492-.978.492zm.726-1.818c-.24 0-.531.153-.756.396-.336.363-.438.837-.225 1.035.207.189.687.045 1.011-.309.336-.363.438-.837.225-1.032a.358.358 0 0 0-.255-.09z" fill="#272521"/>
        <path d="M12.453 10.839a.608.608 0 0 1-.318-.084c-.405-.237-.453-.882-.108-1.467.252-.432.651-.708 1.014-.708.117 0 .222.027.318.084.405.237.45.882.108 1.467-.249.429-.648.708-1.014.708zm.588-1.962c-.255 0-.558.225-.756.561-.249.426-.249.912 0 1.059.246.144.678-.102.921-.519.249-.426.249-.912 0-1.056a.295.295 0 0 0-.165-.045z" fill="#272521"/>
        <g>
            <path d="m9.021 10.974-1.665-.159s-.033.006-.789 1.188c-.795 1.155-.789 1.191-.789 1.191l.798 1.47c1.536-.663 2.433-2.019 2.445-3.69z" fill="#FFF"/>
            <path d="M6.576 14.814a.153.153 0 0 1-.132-.078l-.798-1.47a.208.208 0 0 1-.015-.039c-.018-.075-.021-.096.81-1.308.786-1.23.807-1.236.882-1.251.015-.003.03-.003.045-.003l1.665.159a.15.15 0 0 1 .135.15c-.012 1.743-.936 3.138-2.535 3.828-.018.006-.036.012-.057.012zm-.627-1.62.69 1.275c1.365-.639 2.169-1.851 2.226-3.36l-1.443-.138c-.069.099-.255.369-.729 1.113a32.954 32.954 0 0 0-.744 1.11z" fill="#272521"/>
        </g>
        <g>
            <path d="m15.321 8.997-.264-1.65s-.015-.03-1.35-.462c-1.317-.477-1.35-.462-1.35-.462l-1.224 1.14c1.029 1.317 2.565 1.845 4.188 1.434z" fill="#FFF"/>
            <path d="M14.253 9.282c-1.269 0-2.418-.579-3.24-1.629a.148.148 0 0 1 .015-.201l1.224-1.14c.012-.009.021-.018.036-.024a.178.178 0 0 1 .069-.015c.033 0 .099 0 1.401.471 1.389.45 1.398.468 1.431.534.009.015.012.03.015.045l.264 1.65a.148.148 0 0 1-.111.168 4.388 4.388 0 0 1-1.104.141zm-2.916-1.707c.756.909 1.785 1.407 2.916 1.407.294 0 .597-.033.897-.099l-.231-1.431a36.775 36.775 0 0 0-1.263-.426 34.154 34.154 0 0 0-1.26-.441l-1.059.99z" fill="#272521"/>
        </g>
    </g>
</svg>
