<svg width="27" height="23" xmlns="http://www.w3.org/2000/svg">
    <g fill="#505050" fill-rule="nonzero">
        <path d="M17.239 1.887a5.491 5.491 0 0 0-1.89 7.535 5.503 5.503 0 0 0 7.544 1.887 5.488 5.488 0 0 0 1.89-7.534 5.502 5.502 0 0 0-7.544-1.888zm5.142 8.566a4.508 4.508 0 0 1-6.175-1.546 4.49 4.49 0 0 1 1.547-6.162 4.5 4.5 0 0 1 6.175 1.545 4.49 4.49 0 0 1-1.547 6.163zM4.544 9.793a5.49 5.49 0 0 0-3.728 6.816 5.501 5.501 0 0 0 6.824 3.723 5.492 5.492 0 0 0 3.728-6.816 5.501 5.501 0 0 0-6.824-3.723zm2.709 9.476a4.497 4.497 0 0 1-5.582-3.047 4.488 4.488 0 0 1 3.051-5.575 4.501 4.501 0 0 1 5.582 3.047 4.488 4.488 0 0 1-3.051 5.575zM12.713 19.607c-.567 0-1.003-.234-1.159-.633-.24-.608.265-1.36 1.151-1.707a2.35 2.35 0 0 1 .848-.168c.572 0 1.004.235 1.16.633.239.609-.265 1.36-1.151 1.708a2.35 2.35 0 0 1-.849.167zm.845-2.089a1.91 1.91 0 0 0-.698.139c-.642.252-1.062.784-.915 1.162.138.356.836.474 1.461.226.643-.251 1.063-.784.916-1.162-.088-.222-.382-.365-.764-.365z"/>
        <path d="M14.616 18.79c-.496 0-.89-.206-1.058-.546-.286-.587.16-1.376 1.016-1.791.323-.155.66-.24.979-.24.495 0 .89.206 1.058.55.286.588-.16 1.376-1.016 1.792-.32.15-.66.234-.979.234zm.94-2.157c-.255 0-.533.067-.797.198-.622.302-1 .864-.823 1.229.168.344.869.406 1.474.113.621-.302 1-.864.823-1.23-.092-.196-.349-.31-.676-.31z"/>
        <path d="M16.132 17.493a.918.918 0 0 1-.642-.235c-.483-.444-.353-1.338.294-2.038.621-.671 1.545-.881 2.011-.453.483.444.353 1.338-.294 2.038-.403.428-.915.688-1.369.688zm1.017-2.542c-.336 0-.744.214-1.059.554-.47.508-.613 1.17-.315 1.447.29.264.962.063 1.416-.432.47-.507.613-1.17.315-1.443a.501.501 0 0 0-.357-.126z"/>
        <path d="M17.434 15.702a.851.851 0 0 1-.445-.117c-.567-.332-.634-1.234-.151-2.052.353-.604.911-.99 1.42-.99.163 0 .31.038.445.118.567.331.63 1.233.15 2.051-.348.6-.906.99-1.419.99zm.823-2.743c-.357 0-.78.314-1.058.784-.349.596-.349 1.275 0 1.481.344.201.95-.143 1.29-.726.348-.595.348-1.275 0-1.476a.414.414 0 0 0-.232-.063zM12.63 15.89l-2.332-.221s-.046.008-1.104 1.66c-1.113 1.616-1.105 1.666-1.105 1.666l1.117 2.055c2.15-.927 3.407-2.823 3.423-5.16z"/>
        <path d="M9.206 21.26a.214.214 0 0 1-.184-.109l-1.118-2.055a.291.291 0 0 1-.02-.055c-.026-.105-.03-.134 1.133-1.829 1.1-1.72 1.13-1.728 1.235-1.749.021-.004.042-.004.063-.004l2.331.222c.11.013.19.1.19.21-.018 2.437-1.311 4.388-3.55 5.352a.246.246 0 0 1-.08.017zm-.877-2.265.966 1.783c1.91-.894 3.036-2.588 3.116-4.698l-2.02-.193c-.097.138-.357.516-1.02 1.556a46.073 46.073 0 0 0-1.042 1.552z"/>
        <g>
            <path d="m21.45 13.127-.37-2.307s-.021-.042-1.89-.646c-1.844-.667-1.89-.646-1.89-.646l-1.714 1.594c1.44 1.841 3.591 2.58 5.863 2.005z"/>
            <path d="M19.954 13.525c-1.776 0-3.385-.81-4.536-2.278a.207.207 0 0 1 .021-.28l1.714-1.595c.017-.012.03-.025.05-.033a.25.25 0 0 1 .097-.021c.046 0 .138 0 1.961.658 1.945.63 1.957.655 2.004.747.012.021.016.042.02.063l.37 2.307c.017.11-.05.21-.155.235a6.15 6.15 0 0 1-1.546.197zm-4.082-2.387c1.058 1.271 2.499 1.968 4.082 1.968.412 0 .836-.047 1.256-.139l-.323-2a51.53 51.53 0 0 0-1.769-.596 47.857 47.857 0 0 0-1.764-.617l-1.482 1.384z"/>
        </g>
    </g>
</svg>
