<svg width="28" height="21" xmlns="http://www.w3.org/2000/svg">
    <g fill="#000" fill-rule="nonzero">
        <path d="M5.8 7.596c.405 2.252 1.905 3.71 3.82 3.71 1.915 0 3.385-1.418 3.82-3.705.07-.35.405-2.117.425-2.547a3.917 3.917 0 0 0-1.105-2.906 4.388 4.388 0 0 0-6.315.03 3.847 3.847 0 0 0-1.07 2.886c.025.435.385 2.322.425 2.532zm1.375-4.734a3.387 3.387 0 0 1 4.865 0 2.93 2.93 0 0 1 .825 2.172c0 .275-.255 1.623-.41 2.402-.265 1.373-1.15 2.871-2.835 2.871S7 8.75 6.78 7.411C6.63 6.627 6.39 5.28 6.37 5a2.86 2.86 0 0 1 .805-2.137zM15.73 13.663l-6.11-.819-6.075.804C2.045 13.943.41 14.987.2 16.644l-.2 4.15h19.385l-.24-3.95c-.105-1.633-1.375-2.821-3.415-3.18zM.925 19.795l.265-3.02c.145-1.164 1.42-1.928 2.5-2.143l5.925-.779 5.955.794c.74.13 2.47.614 2.575 2.257l.18 2.891H.925zM16.965 9.538c.335 1.833 1.575 2.997 3.155 2.997 1.58 0 2.795-1.154 3.155-2.997.055-.28.325-1.677.34-2.027a3.179 3.179 0 0 0-.895-2.357 3.637 3.637 0 0 0-5.225 0 3.124 3.124 0 0 0-.87 2.342c.02.375.285 1.773.34 2.042zm1.26-3.67a2.637 2.637 0 0 1 3.775 0 2.19 2.19 0 0 1 .62 1.623c0 .2-.195 1.223-.325 1.883-.1.499-.555 2.202-2.175 2.202-1.305 0-2-1.134-2.17-2.202-.12-.615-.31-1.673-.325-1.888a2.136 2.136 0 0 1 .595-1.618h.005zM22 20.794h6l-.055-3.755c-.105-1.353-1.15-2.342-2.83-2.642l-4.935-.594-.12.999 4.91.589c.565.1 1.885.47 2 1.718l.12 2.686H22v1z"/>
    </g>
</svg>
