<svg width="23" height="17" xmlns="http://www.w3.org/2000/svg">
    <g fill="#505050" fill-rule="nonzero">
        <path d="M4.64 5.657c.324 1.804 1.524 2.972 3.056 2.972s2.708-1.136 3.056-2.968c.056-.28.324-1.696.34-2.04a3.14 3.14 0 0 0-.884-2.328 3.508 3.508 0 0 0-5.052.024A3.084 3.084 0 0 0 4.3 3.629c.02.348.308 1.86.34 2.028zm1.1-3.792a2.708 2.708 0 0 1 3.892 0c.45.464.689 1.093.66 1.74 0 .22-.204 1.3-.328 1.924-.212 1.1-.92 2.3-2.268 2.3-1.348 0-2.096-1.248-2.272-2.32-.12-.628-.312-1.708-.328-1.932a2.292 2.292 0 0 1 .644-1.712zM12.584 10.517 7.696 9.86l-4.86.644c-1.2.236-2.508 1.072-2.676 2.4L0 16.229h15.508l-.192-3.164c-.084-1.308-1.1-2.26-2.732-2.548zM.74 15.429l.212-2.42c.116-.932 1.136-1.544 2-1.716l4.74-.624 4.764.636c.592.104 1.976.492 2.06 1.808l.144 2.316H.74zM13.572 7.213c.268 1.468 1.26 2.4 2.524 2.4s2.236-.924 2.524-2.4c.044-.224.26-1.344.272-1.624a2.548 2.548 0 0 0-.716-1.888 2.908 2.908 0 0 0-4.18 0 2.504 2.504 0 0 0-.696 1.876c.016.3.228 1.42.272 1.636zm1.008-2.94a2.108 2.108 0 0 1 3.02 0c.337.346.517.816.496 1.3 0 .16-.156.98-.26 1.508-.08.4-.444 1.764-1.74 1.764-1.044 0-1.6-.908-1.736-1.764-.096-.492-.248-1.34-.26-1.512-.03-.48.142-.95.476-1.296h.004zM17.6 16.229h4.8l-.044-3.008c-.084-1.084-.92-1.876-2.264-2.116l-3.948-.476-.096.8 3.928.472c.452.08 1.508.376 1.6 1.376l.096 2.152H17.6v.8z"/>
    </g>
</svg>
