<svg width="23" height="24" xmlns="http://www.w3.org/2000/svg">
    <g fill="#505050" fill-rule="nonzero">
        <path d="M11.04.29C4.943.29 0 5.225 0 11.314c0 6.09 4.943 11.026 11.04 11.026 6.097 0 11.04-4.936 11.04-11.026 0-2.924-1.163-5.729-3.234-7.796A11.047 11.047 0 0 0 11.04.289zm0 .918a10.121 10.121 0 0 1 9.02 5.54 10.097 10.097 0 0 1-.864 10.54c-.336-1.103-1.256-1.99-2.636-2.426l-5.52-1.03-5.451 1.025a3.568 3.568 0 0 0-2.705 2.43 10.097 10.097 0 0 1-.863-10.54 10.121 10.121 0 0 1 9.019-5.539zm0 20.214c-2.788.001-5.452-1.15-7.36-3.179v-.115c0-1.378 1.1-2.118 2.107-2.37l5.253-.988 5.249.979c.653.206 2.111.845 2.111 2.375v.12a10.098 10.098 0 0 1-7.36 3.178z"/>
        <path d="M7.728 8.977c.354 1.98 1.656 3.257 3.312 3.257s2.935-1.245 3.312-3.248c.06-.303.35-1.838.363-2.224a3.466 3.466 0 0 0-.97-2.568 3.765 3.765 0 0 0-5.433.023 3.406 3.406 0 0 0-.952 2.55c.028.381.336 2.03.368 2.21zm1.251-4.135a2.845 2.845 0 0 1 4.099 0c.488.501.749 1.18.722 1.879 0 .239-.22 1.41-.35 2.09-.23 1.213-.984 2.504-2.41 2.504-1.426 0-2.199-1.346-2.406-2.499-.129-.685-.354-1.856-.354-2.095a2.493 2.493 0 0 1 .7-1.874v-.005z"/>
    </g>
</svg>
